<?xml version="1.0" encoding="UTF-8" standalone="no"?>
<svg
   xmlns:dc="http://purl.org/dc/elements/1.1/"
   xmlns:cc="http://creativecommons.org/ns#"
   xmlns:rdf="http://www.w3.org/1999/02/22-rdf-syntax-ns#"
   xmlns:svg="http://www.w3.org/2000/svg"
   xmlns="http://www.w3.org/2000/svg"
   xmlns:sodipodi="http://sodipodi.sourceforge.net/DTD/sodipodi-0.dtd"
   xmlns:inkscape="http://www.inkscape.org/namespaces/inkscape"
   width="213.409"
   height="255.339"
   viewBox="0 0 213.409 255.339"
   version="1.1"
   id="svg3"
   sodipodi:docname="logo.svg"
   inkscape:version="0.92.1 r15371">
  <metadata
     id="metadata9">
    <rdf:RDF>
      <cc:Work
         rdf:about="">
        <dc:format>image/svg+xml</dc:format>
        <dc:type
           rdf:resource="http://purl.org/dc/dcmitype/StillImage" />
      </cc:Work>
    </rdf:RDF>
  </metadata>
  <defs
     id="defs7" />
  <sodipodi:namedview
     pagecolor="#ffffff"
     bordercolor="#666666"
     borderopacity="1"
     objecttolerance="10"
     gridtolerance="10"
     guidetolerance="10"
     inkscape:pageopacity="0"
     inkscape:pageshadow="2"
     inkscape:window-width="1920"
     inkscape:window-height="1016"
     id="namedview5"
     showgrid="false"
     inkscape:zoom="1.8485229"
     inkscape:cx="139.35363"
     inkscape:cy="50.148185"
     inkscape:window-x="1920"
     inkscape:window-y="27"
     inkscape:window-maximized="1"
     inkscape:current-layer="svg3" />
  <path
     id="Unión_1"
     data-name="Unión 1"
     d="M-382.765,219.751a112.886,112.886,0,0,1-26.23-18.832,108.813,108.813,0,0,1-19.943-26.179,110.433,110.433,0,0,1-13.181-44.628,119.6,119.6,0,0,1,.485-23.234,128.5,128.5,0,0,1,4.92-23.044,137.546,137.546,0,0,1,9.147-22.249A144.756,144.756,0,0,1-414.4,40.738,151.347,151.347,0,0,1-381.98,9.172c-46.527,46.112-61.095,108.014-36.093,155.712,20.783,39.65,64.759,62.218,117.634,60.37a179.11,179.11,0,0,0,42.26-6.686,153.211,153.211,0,0,1-27.428,10.319,145.5,145.5,0,0,1-32.7,4.946h-.006q-2.443.086-4.876.085A128.831,128.831,0,0,1-382.765,219.751Zm83.478-3.5a158.763,158.763,0,0,1-35.938-4,130.143,130.143,0,0,1-31.744-11.758,105.828,105.828,0,0,1-25.8-19.114,93.619,93.619,0,0,1-18.138-26.086,93.255,93.255,0,0,1-7.315-23.242,99.906,99.906,0,0,1-1.209-24.269,114.935,114.935,0,0,1,4.532-24.6,135.34,135.34,0,0,1,9.913-24.226A157.323,157.323,0,0,1-390.062,35.8a177.674,177.674,0,0,1,19.574-21.351A194.133,194.133,0,0,1-346.637-4.4,206.686,206.686,0,0,1-318.88-20.033q.466-.217.932-.432c-65.067,36.532-97.025,105.478-73.126,161.781a99.41,99.41,0,0,0,17.443,27.434V60.242l48.346-30.176v14.5L-359.8,65.362V72.2l34.518-20.794,47.146,30.856-4.841,4.209-43.358-27.95V70.834l-34.306,22.71v6.742l34.306-22.063,46.725,32.455-6.1,2.02-40.621-27.635V98.68l-34.306,20.31v6.42l34.306-19.553,45.462,30.1v-6.02l-6.975-4.524v-3.622l21.288-7.176v10.8l21.123,10.544V142.6l-21.123-9.928v12.1l21.123,8.382V160.8l-21.25-7.645v10.193l21.25,8.373v8.465l-21.25-8.465.127,11.071,21.123,7.823v7.429l-21.018-7.429v17.87a177.663,177.663,0,0,0,36.713-5.742,201.458,201.458,0,0,1-30.979,9.335,184.333,184.333,0,0,1-38.556,4.172Zm12.352-8-.983-42.961L-326.337,142.6V200A147.119,147.119,0,0,0-286.935,208.246Zm5.513-46.478v-6.293l-6.751-4.573V135.48l-38.617-23.835v14.148l-34.253,18.3v7.828l34.253-19.114Z"
     transform="translate(442.972 20.919)"
     fill="#060606"
     stroke="#000"
     stroke-width="1"
     style="fill:#3ec1d5;fill-opacity:1;stroke:#3ec1d5;stroke-opacity:1" />
</svg>
